<svg width="14" height="14" viewBox="0 0 14 14" fill="none" xmlns="http://www.w3.org/2000/svg">
<g clip-path="url(#clip0_30_3525)">
<path d="M8.74996 1.16602H5.24996C4.92779 1.16602 4.66663 1.42718 4.66663 1.74935V2.91602C4.66663 3.23818 4.92779 3.49935 5.24996 3.49935H8.74996C9.07213 3.49935 9.33329 3.23818 9.33329 2.91602V1.74935C9.33329 1.42718 9.07213 1.16602 8.74996 1.16602Z" stroke="#4A5565" stroke-width="1.16667" stroke-linecap="round" stroke-linejoin="round"/>
<path d="M9.33337 2.33398H10.5C10.8095 2.33398 11.1062 2.4569 11.325 2.67569C11.5438 2.89449 11.6667 3.19123 11.6667 3.50065V11.6673C11.6667 11.9767 11.5438 12.2735 11.325 12.4923C11.1062 12.7111 10.8095 12.834 10.5 12.834H3.50004C3.19062 12.834 2.89388 12.7111 2.67508 12.4923C2.45629 12.2735 2.33337 11.9767 2.33337 11.6673V3.50065C2.33337 3.19123 2.45629 2.89449 2.67508 2.67569C2.89388 2.4569 3.19062 2.33398 3.50004 2.33398H4.66671" stroke="#4A5565" stroke-width="1.16667" stroke-linecap="round" stroke-linejoin="round"/>
</g>
<defs>
<clipPath id="clip0_30_3525">
<rect width="14" height="14" fill="white"/>
</clipPath>
</defs>
</svg>
